<?xml version="1.0" encoding="UTF-8" standalone="no"?>
<!-- Created with Inkscape (http://www.inkscape.org/) -->

<svg
   xmlns:dc="http://purl.org/dc/elements/1.1/"
   xmlns:cc="http://creativecommons.org/ns#"
   xmlns:rdf="http://www.w3.org/1999/02/22-rdf-syntax-ns#"
   xmlns:svg="http://www.w3.org/2000/svg"
   xmlns="http://www.w3.org/2000/svg"
   version="1.1"
   width="366.54303"
   height="268.74896"
   id="svg2">
  <defs
     id="defs4" />
  <metadata
     id="metadata7">
    <rdf:RDF>
      <cc:Work
         rdf:about="">
        <dc:format>image/svg+xml</dc:format>
        <dc:type
           rdf:resource="http://purl.org/dc/dcmitype/StillImage" />
        <dc:title></dc:title>
      </cc:Work>
    </rdf:RDF>
  </metadata>
  <g
     transform="translate(-161.31278,-531.21179)"
     id="layer1">
    <path
       d="m 513.28574,762.82668 c -1.1,-0.2167 -2.46509,-0.76984 -3.03354,-1.2292 -0.56844,-0.45935 -1.63076,-0.46608 -2.3607,-0.015 -1.93975,1.19884 -5.10013,0.0916 -5.1412,-1.80126 -0.0272,-1.25495 -0.31682,-1.14021 -1.25,0.49526 -1.63497,2.86544 -5.38102,1.49657 -6.39085,-2.33534 l -0.73613,-2.79329 -0.55361,3 c -0.30449,1.65 -0.88669,2.8875 -1.29379,2.75 -0.4071,-0.1375 -1.84166,-0.25 -3.18792,-0.25 -2.23953,0 -2.47898,-0.44659 -2.81502,-5.25 l -0.36728,-5.25 -0.18498,5.14301 c -0.12663,3.52081 -0.65811,5.32457 -1.68498,5.71862 -0.825,0.31658 -1.5,0.0846 -1.5,-0.51546 0,-0.74335 -0.4558,-0.71278 -1.43026,0.0959 -1.14215,0.9479 -1.64575,0.78437 -2.5,-0.81181 -1.38008,-2.57861 -1.44863,-28.2639 -0.0697,-26.13022 0.53316,0.825 0.97627,7.09851 0.98469,13.94113 0.0137,11.15564 0.16701,12.24056 1.48351,10.5 1.32847,-1.7564 1.47122,-1.77459 1.5,-0.19113 0.0175,0.9625 0.44574,1.75 0.95166,1.75 0.50592,0 1.26674,-4.6125 1.69072,-10.25 0.83651,-11.12298 0.95189,-11.09252 1.91628,0.50594 0.35519,4.27182 1.05554,7.50215 1.55902,7.19099 0.50276,-0.31073 0.91412,0.13659 0.91412,0.99405 0,0.85746 0.675,1.55902 1.5,1.55902 1.14091,0 1.50367,-1.25681 1.51531,-5.25 0.008,-2.8875 0.45153,-5.925 0.98469,-6.75 0.70895,-1.09702 0.97349,-0.34488 0.98469,2.79966 0.0175,4.9199 2.36827,10.20034 4.54099,10.20034 1.07777,0 1.47432,-1.19449 1.47432,-4.44098 0,-2.44254 0.45,-4.7191 1,-5.05902 0.59343,-0.36676 1,0.79569 1,2.8592 0,5.0018 0.89023,6.6408 3.60699,6.6408 2.07576,0 2.39301,-0.47183 2.39301,-3.55902 0,-2.11803 0.40488,-3.30878 1,-2.94098 0.55,0.33992 1,2.16648 1,4.05902 0,2.97829 0.3271,3.44098 2.43261,3.44098 1.55436,0 2.66179,-0.72207 3.06739,-2 0.82578,-2.60181 2.5,-2.5808 2.5,0.0314 0,2.48111 2.86676,3.78926 4.08561,1.86434 0.48607,-0.76765 0.89755,-0.94572 0.91439,-0.39572 0.0168,0.55 0.39437,0.42686 0.83894,-0.27363 0.62631,-0.98687 1.16906,-0.87429 2.41056,0.5 1.51366,1.67556 1.30223,1.78426 -3.82362,1.96596 -4.49547,0.15936 -5.43133,-0.0979 -5.45768,-1.5 -0.0283,-1.50485 -0.16676,-1.52212 -1.25,-0.15593 -0.67001,0.84502 -2.1182,1.35909 -3.2182,1.14239 z m -41.03825,-2.5302 c -0.21871,-0.63172 -0.55845,-3.17359 -0.75499,-5.64859 l -0.35735,-4.5 -0.1747,4.63337 c -0.14651,3.88537 -0.53794,4.7304 -2.42471,5.23439 -3.55461,0.94952 -4.73232,-1.76643 -4.90384,-11.30889 l -0.15383,-8.55887 -0.66782,9.73832 c -0.3673,5.35608 -0.86057,9.91612 -1.09616,10.13344 -0.23559,0.21732 -1.44085,0.0121 -2.67835,-0.4561 -1.87386,-0.70891 -2.26986,-1.65066 -2.3688,-5.63344 l -0.11879,-4.78222 -0.95024,5.20452 c -0.70041,3.83616 -1.47774,5.37195 -2.95657,5.84131 -1.10347,0.35023 -2.30991,0.33398 -2.68096,-0.0361 -0.37105,-0.37009 -0.89797,-5.02368 -1.17093,-10.3413 l -0.49628,-9.66841 -0.50372,10 c -0.46535,9.2385 -0.66512,10.02303 -2.62336,10.30247 -2.90074,0.41393 -3.31547,-1.66845 -3.54559,-17.80247 l -0.19256,-13.5 -0.68875,15.5 c -0.37881,8.525 -0.74831,15.6125 -0.8211,15.75 -0.0728,0.1375 -0.98421,0.25 -2.02536,0.25 -2.27924,0 -3.06809,-1.79323 -3.2253,-7.33179 -0.2597,-9.14894 -1.64379,-10.26212 -1.76338,-1.41821 -0.12103,8.95127 -0.65488,9.9588 -4.11831,7.7725 -1.24403,-0.7853 -1.59355,-5.2622 -2.04822,-26.23469 l -0.54822,-25.28783 -0.20178,25.21482 c -0.19126,23.9008 -0.30382,25.26942 -2.15979,26.26271 -3.51378,1.88051 -4.03052,-1.48214 -4.25077,-27.66179 l -0.20878,-24.81574 -0.54122,25 c -0.29767,13.75 -0.90528,25.5625 -1.35024,26.25 -1.12745,1.74201 -3.35773,1.56082 -4.08399,-0.33179 -0.33385,-0.86998 -0.68282,-8.85748 -0.77551,-17.75 l -0.16851,-16.16821 -0.62351,16.50898 c -0.62821,16.63343 -1.06045,18.99102 -3.48185,18.99102 -1.96617,0 -2.51341,-3.2589 -2.68676,-16 l -0.15647,-11.5 -0.81861,11.5 c -0.96573,13.5666 -1.46881,16 -3.30783,16 -2.17617,0 -2.57868,-2.33475 -2.72944,-15.83179 l -0.14151,-12.66821 -0.86607,11.5 c -0.99687,13.23664 -1.49682,16 -2.89472,16 -1.97751,0 -2.9562,-5.29901 -2.9562,-16.00608 0,-6.1719 -0.43252,-11.1432 -1,-11.49392 -0.64803,-0.40051 -1,4.19195 -1,13.04797 0,12.05077 -0.18696,13.59427 -1.58179,13.05902 -0.86998,-0.33385 -1.99498,-0.60699 -2.5,-0.60699 -0.51481,0 -0.98734,-7.35888 -1.07555,-16.75 -0.12494,-13.30013 -0.30532,-15.30826 -0.87579,-9.75 -0.39515,3.85 -0.77434,11.27925 -0.84266,16.50945 -0.10679,8.17544 -0.39044,9.67572 -2.02205,10.69468 -1.62086,1.01224 -1.98372,0.86492 -2.48634,-1.00946 -0.32368,-1.20707 -0.66943,-12.76967 -0.76832,-25.69467 l -0.17982,-23.5 -0.70405,21.5 c -0.38723,11.825 -1.03754,23.1875 -1.44514,25.25 -0.75954,3.84346 -2.82855,4.99034 -3.9115,2.16821 -0.33385,-0.86998 -0.6919,-19.43248 -0.79568,-41.25 l -0.18868,-39.66821 -0.56132,40.78659 c -0.47694,34.65588 -0.78552,40.92514 -2.05295,41.70836 -0.93168,0.57574 -1.87018,0.54359 -2.5,-0.0856 -0.63623,-0.63564 -1.19127,-18.98009 -1.50398,-49.70836 l -0.49563,-48.70099 -0.50437,49.16766 c -0.27741,27.04221 -0.85259,49.51542 -1.27819,49.94047 -0.42559,0.42505 -1.40628,0.12461 -2.17929,-0.66765 -1.01796,-1.04331 -1.65842,-6.26564 -2.32283,-18.94048 l -0.91734,-17.5 -0.15337,17.78138 c -0.13187,15.28967 -0.3777,17.86748 -1.75428,18.39572 -2.73624,1.05 -3.3628,-1.72647 -3.53782,-15.6771 l -0.16936,-13.5 -0.73095,14.30167 c -0.40203,7.86592 -1.02073,14.59144 -1.3749,14.94561 -0.60362,0.60362 -3.35614,1.26981 -3.77741,0.91424 -0.10524,-0.0888 -0.46314,-8.26152 -0.79533,-18.16152 l -0.60398,-18 -0.20466,17.75 c -0.12719,11.03022 -0.58325,17.75 -1.20467,17.75 -0.55,0 -1,0.64359 -1,1.43019 0,1.10772 -0.66407,1.23975 -2.94518,0.58553 -2.01409,-0.57763 -3.08106,-0.47653 -3.375,0.31981 -0.31602,0.85617 -0.79386,0.82142 -1.80482,-0.13126 -0.96103,-0.90564 -1.54324,-5.12056 -1.93383,-14 l -0.55882,-12.70427 -0.19118,12.69098 c -0.10514,6.98004 -0.60489,12.94668 -1.11055,13.25919 -0.50566,0.31252 -1.63066,-0.14307 -2.5,-1.01241 -1.2301,-1.23009 -1.61626,-4.05961 -1.74134,-12.75919 l -0.16071,-11.17857 -0.9745,12.25 c -0.70918,8.91486 -1.32999,12.25 -2.28026,12.25 -2.34052,0 -2.73094,-2.10102 -3.42115,-18.41052 l -0.6809,-16.08948 -0.16088,15.62756 c -0.13013,12.64094 -0.45217,15.8693 -1.68505,16.8925 -0.83829,0.69572 -1.85079,0.93881 -2.25,0.54021 -0.3992,-0.3986 -0.96443,-20.37523 -1.25606,-44.3925 l -0.53024,-43.66777 -0.21976,41.70295 c -0.21093,40.02625 -0.68313,46.79705 -3.26365,46.79705 -1.49772,0 -1.93391,-5.07094 -2.10746,-24.5 l -0.17865,-20 -0.68126,21.26292 c -0.37469,11.69461 -0.95604,21.5377 -1.29188,21.87354 -0.33584,0.33584 -1.30502,0.34415 -2.15374,0.0185 -1.31689,-0.50533 -1.56631,-3.71231 -1.70122,-21.87354 l -0.1581,-21.28138 -1.0919,21.67048 c -0.60055,11.91877 -1.45388,22.03074 -1.89628,22.47104 -1.73959,1.73134 -2.67142,-2.62497 -2.81102,-13.14152 -0.0803,-6.05 -0.46444,-14.375 -0.85362,-18.5 -0.54824,-5.81082 -0.74402,-3.26999 -0.8693,11.28138 -0.13693,15.90533 -0.39799,18.87207 -1.70482,19.37354 -0.84872,0.32569 -1.7634,0.37189 -2.03261,0.10267 -0.26922,-0.26922 -0.81232,-12.58731 -1.20688,-27.37354 l -0.71738,-26.88409 -0.5,27.1686 c -0.275,14.94272 -0.8375,27.50522 -1.25,27.91666 -1.63204,1.62784 -2.29441,-1.31362 -3.35878,-14.9157 l -1.10878,-14.16956 -0.14122,13.62756 c -0.10778,10.40037 -0.47652,13.90583 -1.55712,14.80264 -1.92002,1.59347 -2.25653,0.1567 -3.2627,-13.9302 l -0.8214,-11.5 -0.5,13 c -0.41026,10.66667 -0.76923,13 -2,13 -1.26316,0 -1.57895,-3 -2,-19 l -0.5,-19 -0.85367,19.30336 c -0.75667,17.11015 -1.04072,19.26742 -2.5,18.98704 -1.46545,-0.28156 -1.70393,-3.33626 -2.17057,-27.80336 l -0.52424,-27.48704 -0.22576,20.59912 c -0.27915,25.47042 -1.07982,35.90088 -2.75586,35.90088 -0.68015,0 -1.50798,-1.0125 -1.83961,-2.25 -0.33164,-1.2375 -0.70632,-18.675 -0.83263,-38.75 l -0.22965,-36.5 -0.58708,38.5 c -0.3229,21.175 -0.6757,38.6125 -0.78401,38.75 -0.1083,0.1375 -0.87192,0.25 -1.69692,0.25 -1.10632,0 -1.53083,-1.24665 -1.61746,-4.75 -0.0646,-2.6125 -0.44042,-9.25 -0.83515,-14.75 l -0.7177,-10 -0.16484,14.12756 c -0.12177,10.43543 -0.51557,14.41863 -1.50686,15.24132 -0.7381,0.61257 -1.6381,0.81767 -2,0.45578 -0.36189,-0.3619 -0.73309,-8.12049 -0.82488,-17.24133 l -0.16689,-16.58333 -0.6391,16.256 c -0.60381,15.35821 -1.58488,20.01432 -3.76045,17.84685 -0.42167,-0.42009 -1.01875,-7.81509 -1.32684,-16.43333 l -0.56018,-15.66952 -0.20514,15 c -0.11282,8.25 -0.59793,15.62015 -1.07802,16.37812 -1.58844,2.50784 -3.09469,0.0803 -3.21857,-5.18714 l -0.12209,-5.19098 -1.12791,6 c -1.15611,6.15 -3.18429,8.24154 -4.11558,4.24414 -0.28755,-1.23428 -0.64816,-7.86914 -0.80136,-14.74414 l -0.27853,-12.5 -0.21622,14.32332 c -0.1968,13.03658 -0.37344,14.29339 -1.96623,13.99013 -1.44763,-0.27563 -1.84739,-1.80016 -2.31369,-8.82333 l -0.5637,-8.49012 -0.1863,8.64301 c -0.14748,6.84155 -0.516,8.76953 -1.76809,9.25 -2.38943,0.91691 -2.4171,0.88117 -2.43353,-3.14301 -0.0114,-2.78938 -0.26363,-3.36575 -0.98469,-2.25 -0.53315,0.825 -0.97626,2.5125 -0.98468,3.75 -0.0241,3.54225 -2.9583,2.7594 -3.74806,-1 l -0.68275,-3.25 -0.55207,3 c -0.96528,5.24539 -3.45957,3.72033 -4.08883,-2.5 l -0.5564,-5.5 -0.4436,5.5 c -0.32465,4.02507 -0.84586,5.5 -1.94361,5.5 -0.98198,0 -1.71,-1.38138 -2.10809,-4 l -0.6081,-4 -0.1419,4.25 c -0.11807,3.53603 -0.47789,4.25 -2.14191,4.25 -1.49098,0 -2.02537,-0.69989 -2.09968,-2.75 l -0.0997,-2.75 -0.69416,2.49475 c -0.92165,3.31228 -3.8134,3.8479 -4.39308,0.8137 l -0.44103,-2.30845 -0.13618,2.25 c -0.177,2.92437 -3.13644,2.96503 -3.89781,0.0536 -0.52704,-2.0154 -0.62823,-2.04295 -1.22761,-0.33424 -0.74481,2.1233 -4.28574,2.62668 -10.72283,1.52437 -2.6601,-0.45553 -4.3399,-0.33778 -4.55902,0.31956 -0.20831,0.62495 -0.90257,0.69747 -1.73744,0.18149 -1.70458,-1.05353 -5.99148,-1.31925 -5.99148,-0.37142 0,0.37917 -0.89493,0.45537 -1.98875,0.16933 -1.09381,-0.28604 -1.72329,-0.94959 -1.39885,-1.47455 0.32445,-0.52497 1.16455,-0.73397 1.8669,-0.46446 0.70235,0.26952 1.78183,-0.0148 2.39885,-0.63182 0.77747,-0.77747 1.12185,-0.79032 1.12185,-0.0419 0,1.14134 9.55806,1.09528 10.70492,-0.0516 0.34803,-0.34802 1.44833,0.10529 2.44512,1.00737 1.69605,1.53491 1.87128,1.48693 2.73099,-0.74782 0.80428,-2.09064 1.0067,-2.17007 1.6258,-0.63796 1.01732,2.51757 2.19039,2.15836 3.24061,-0.99232 l 0.91411,-2.74232 0.68828,2.74232 c 0.92462,3.68399 2.33038,3.46219 3.2176,-0.50768 l 0.72633,-3.25 1.1371,4 c 1.3182,4.63702 2.0178,3.95405 3.07303,-3 0.83078,-5.47484 1.02901,-5.29952 1.97873,1.75 0.35196,2.6125 1.03143,4.75 1.50993,4.75 0.4785,0 1.22346,-3.7125 1.65546,-8.25 l 0.78545,-8.25 1.03327,7.67674 c 0.5683,4.22221 1.32545,7.96438 1.68255,8.31594 0.3571,0.35156 0.95186,-4.22797 1.32168,-10.17674 0.90373,-14.53697 1.13688,-14.71461 2.02717,-1.54459 1.26528,18.71708 3.39053,14.41314 3.59055,-7.27135 0.0699,-7.57352 0.40602,-11.07782 0.91132,-9.5 0.44036,1.375 0.8455,8.2375 0.90032,15.25 0.0927,11.85418 1.03393,15.85643 2.4694,10.5 0.33163,-1.2375 0.61601,-10.8 0.63194,-21.25 0.0193,-12.64143 0.35338,-18.49801 0.99834,-17.5 0.53316,0.825 0.98122,8.7 0.9957,17.5 0.0273,16.62587 0.65191,23.5 2.13515,23.5 0.47803,0 0.91952,-7.9875 0.98108,-17.75 0.0616,-9.7625 0.40195,-22.025 0.75643,-27.25 0.52274,-7.70538 0.77484,-4.42536 1.33453,17.36313 0.63451,24.70126 0.96971,28.79761 2.25155,27.51576 0.24994,-0.24994 0.8029,-15.96244 1.22879,-34.91666 0.90024,-40.06503 2.04557,-36.80383 2.20824,6.28777 0.0993,26.30684 0.83304,33.87746 2.48353,25.625 0.34375,-1.71875 0.66986,-20.50625 0.72468,-41.75 0.0548,-21.24375 0.44036,-39.75 0.85674,-41.125 0.41639,-1.375 0.93403,16.92538 1.15032,40.6675 0.2163,23.74213 0.73076,43.50463 1.14326,43.91667 0.4125,0.41204 1.00138,0.49779 1.30862,0.19055 0.30724,-0.30724 0.86974,-24.11974 1.25,-52.91667 0.56457,-42.75454 0.80553,-48.96477 1.31373,-33.85804 0.34229,10.175 0.67979,33.66094 0.75,52.19098 0.11715,30.91849 0.89843,40.66133 2.48903,31.03916 0.33914,-2.05158 0.6475,-28.70514 0.68525,-59.23014 0.0377,-30.525 0.40535,-57.3 0.81688,-59.5 0.41154,-2.2 1.01757,24.26946 1.34673,58.82103 0.32917,34.55156 0.86652,63.08906 1.19412,63.41666 0.32761,0.3276 0.89819,0.2931 1.26796,-0.0767 0.36977,-0.36978 0.92679,-32.73228 1.23782,-71.91667 0.33525,-42.23676 0.82941,-65.95132 1.21368,-58.24435 0.35649,7.15 0.75207,36.625 0.87906,65.5 0.23028,52.36145 0.8533,69.29204 2.28152,62 0.37703,-1.925 1.03781,-39.275 1.46841,-83 l 0.78291,-79.5 0.80414,81 c 0.44227,44.55 1.09472,81.9 1.44989,83 1.47509,4.56856 2.02335,-11.63289 2.25037,-66.5 0.13086,-31.625 0.51286,-70.55 0.8489,-86.5 0.47609,-22.59766 0.76709,-8.93776 1.31811,61.8738 0.38893,49.98059 0.95143,91.11809 1.25,91.41667 0.29858,0.29857 0.88037,0.20556 1.29287,-0.2067 0.4125,-0.41226 0.89626,-44.246 1.07501,-97.40832 0.17876,-53.16232 0.68934,-95.98751 1.13462,-95.1671 0.44529,0.82041 1.00572,44.13834 1.24542,96.26208 0.28745,62.51052 0.78303,95.11765 1.45586,95.79048 1.71597,1.71597 2.33326,-30.90885 2.33626,-123.47758 0.002,-47.80416 0.34033,-86.57941 0.75283,-86.16722 0.4125,0.41219 0.975,47.47493 1.25,104.58386 0.275,57.10893 0.8375,104.17168 1.25,104.58389 0.4125,0.41221 1.0875,0.41205 1.5,-3.5e-4 0.4125,-0.4124 0.95612,-50.0999 1.20804,-110.41666 0.25192,-60.31674 0.76677,-105.61682 1.14411,-100.66682 0.37734,4.95 0.73605,50.175 0.79714,100.5 0.11153,91.89101 0.54426,111.95645 2.37493,110.12578 0.60407,-0.60407 1.16495,-42.8161 1.49565,-112.56332 0.29102,-61.37824 0.79935,-111.32684 1.12963,-110.99689 0.33027,0.32995 0.8255,50.70037 1.1005,111.93428 0.275,61.2339 0.8375,111.67167 1.25,112.08393 0.4125,0.41225 1.07109,0.42847 1.46352,0.036 0.39244,-0.39244 0.89773,-50.66215 1.12287,-111.71047 0.22514,-61.04831 0.68354,-110.72274 1.01866,-110.38762 0.33513,0.33513 0.85441,50.27941 1.15397,110.9873 0.29955,60.70788 0.87007,110.7034 1.26781,111.10114 0.39774,0.39775 1.06067,0.38583 1.47317,-0.0265 0.4125,-0.4123 0.91059,-49.4248 1.10686,-108.91666 0.19628,-59.49181 0.6995,-107.26697 1.11826,-106.16697 0.41877,1.1 0.96996,49.81178 1.22488,108.2484 0.25491,58.43663 0.76419,106.54913 1.13174,106.91667 0.36754,0.36755 1.00576,0.33107 1.41826,-0.0811 0.4125,-0.41213 0.975,-46.57467 1.25,-102.58344 0.275,-56.00876 0.77539,-102.10946 1.11198,-102.44599 0.33659,-0.33653 0.82471,45.22365 1.08472,101.24484 0.26001,56.02119 0.82837,102.43212 1.26302,103.13541 2.06606,3.34294 2.51997,-4.30809 2.66588,-44.93483 0.0859,-23.925 0.43031,-66.225 0.76531,-94 l 0.60909,-50.49996 0.84157,93.90685 c 0.46287,51.64877 1.07352,94.51127 1.35699,95.25 0.28348,0.73873 0.8454,1.34315 1.24871,1.34315 1.18802,0 2.04796,-42.53398 2.05043,-101.41667 0.001,-30.20416 0.3398,-54.57916 0.7523,-54.16667 0.4125,0.4125 0.975,35.5654 1.25,78.11756 0.35049,54.23286 0.82835,77.69565 1.59808,78.46475 1.80578,1.80431 2.38001,-11.90676 2.51281,-59.99897 0.0676,-24.475 0.42161,-47.425 0.78672,-51 0.36512,-3.575 0.90447,19.71945 1.19857,51.76545 0.38972,42.4655 0.85142,58.58215 1.70261,59.43334 0.64233,0.64233 1.38908,0.94667 1.65944,0.67631 0.27036,-0.27036 0.84036,-15.09036 1.26667,-32.93333 0.68258,-28.56942 0.85101,-30.89005 1.4111,-19.44177 0.34979,7.15 0.69418,21.55 0.76531,32 0.0787,11.5698 0.54416,19.58659 1.19013,20.5 0.79279,1.12101 1.1883,1.18619 1.56536,0.25799 0.37518,-0.92357 1.01766,-0.9674 2.50583,-0.17095 3.82984,2.04966 4.75728,-1.15763 4.94099,-17.08704 0.23807,-20.64184 1.47519,-47.62029 1.85717,-40.5 0.17703,3.3 0.59578,17.34718 0.93054,31.21595 0.53256,22.0627 0.79624,25.09978 2.10867,24.28692 1.29148,-0.79989 1.58893,-8.65712 2.13972,-56.52235 0.35185,-30.57631 0.84888,-55.80245 1.1045,-56.05807 0.25563,-0.25563 0.70894,24.18225 1.00735,54.30639 0.29842,30.12414 0.86204,55.55866 1.25249,56.52116 0.39046,0.9625 1.03962,1.75 1.4426,1.75 1.12729,0 2.05334,-45.92442 2.05334,-101.82888 0,-27.77745 0.3375,-50.16738 0.75,-49.7554 0.4125,0.41199 0.975,34.34949 1.25,75.41667 0.28756,42.94344 0.89195,75.27672 1.4225,76.10123 2.03086,3.15608 2.44333,-3.68342 2.64952,-43.93362 0.32875,-64.17636 1.49483,-137.96964 1.85673,-117.5 0.17503,9.9 0.60017,50.25046 0.94474,89.66769 0.34458,39.41723 0.96401,72.00473 1.37651,72.41667 0.4125,0.41193 1.0875,0.41165 1.5,-6.3e-4 0.4125,-0.41228 1.00804,-43.90783 1.32343,-96.65676 0.31538,-52.74894 0.80783,-96.14157 1.09434,-96.42807 0.2865,-0.2865 0.84694,42.77714 1.24542,95.69698 0.39847,52.91984 0.99263,96.65173 1.32034,97.18198 2.18267,3.53164 2.65041,-10.96285 3.33004,-103.19223 0.40251,-54.62291 1.00287,-99.58541 1.33414,-99.91667 0.33126,-0.33126 0.60229,28.87412 0.60229,64.90084 0,36.02673 0.29723,81.73664 0.66051,101.57759 0.60364,32.96884 0.79734,35.93763 2.25,34.48507 1.42444,-1.42435 1.64141,-11.89412 2.08949,-100.82769 0.275,-54.58107 0.78519,-99.52345 1.13375,-99.87196 0.34857,-0.34851 0.8065,44.63535 1.01762,99.96413 0.33399,87.52525 0.5765,100.71738 1.86625,101.51806 2.23059,1.38477 2.69427,-15.38019 2.9736,-107.515 0.1334,-44 0.55012,-82.925 0.92605,-86.5 0.37592,-3.575 0.91406,38.275 1.19586,93 0.28179,54.725 0.86976,100.2875 1.3066,101.25 3.15881,6.95994 3.55446,-3.6767 3.67317,-98.75 0.0577,-46.2 0.42328,-86.475 0.81243,-89.5 0.38914,-3.025 0.90714,38.45005 1.1511,92.16677 0.24396,53.71673 0.78857,98.01173 1.21024,98.43334 3.03741,3.03698 3.23427,-1.87055 3.73333,-93.06655 0.275,-50.25235 0.79135,-91.65903 1.14744,-92.01484 0.35609,-0.35581 0.80609,40.75948 1,91.36732 0.35215,91.90827 0.53777,96.75932 3.58589,93.71489 0.42167,-0.42116 1.00183,-37.37632 1.28924,-82.12257 0.28742,-44.74626 0.78802,-81.62229 1.11246,-81.94672 0.32443,-0.32444 0.80182,36.24492 1.06086,81.26523 0.25904,45.02031 0.83963,82.45158 1.29019,83.18061 0.64752,1.0477 1.10159,0.93933 2.16656,-0.51712 1.07687,-1.47271 1.3756,-10.78793 1.48801,-46.40149 0.0774,-24.50738 0.41486,-57.83387 0.75,-74.05887 0.53151,-25.73166 0.70462,-19.92639 1.35516,45.44581 0.47593,47.8253 1.1092,75.3092 1.75,75.95 0.64564,0.64564 1.34897,0.65941 1.96984,0.0385 0.58479,-0.58479 1.27499,-26.79254 1.75,-66.45 0.85813,-71.64437 1.01076,-70.84716 2.06828,10.80285 0.61566,47.53431 0.92641,55.4179 2.21607,56.21925 2.23079,1.38613 2.74577,-9.75594 2.95836,-64.00645 0.10021,-25.575 0.56895,-47.4 1.04164,-48.5 0.49654,-1.15551 0.92474,19.74559 1.0141,49.5 0.17107,56.96383 0.73606,66.57986 3.7359,63.58444 0.4125,-0.4119 1.0722,-21.5244 1.46601,-46.91667 0.3938,-25.39227 0.85195,-47.29277 1.01812,-48.66777 0.16616,-1.375 0.60588,18.88404 0.97715,45.0201 0.37128,26.13605 0.98107,48.31757 1.35509,49.29226 0.37402,0.97469 1.1871,1.60492 1.80684,1.40051 1.56596,-0.51653 2.32722,-15.39222 2.67197,-52.21287 0.22092,-23.59538 0.45978,-28.49198 1,-20.5 0.39036,5.775 0.77178,24 0.8476,40.5 0.0758,16.5 0.48033,30.53875 0.89893,31.19721 0.4937,0.77662 1.27878,0.87775 2.23468,0.28788 1.23196,-0.76023 1.5556,-6.23167 1.97361,-33.36567 0.275,-17.85098 0.8375,-32.79303 1.25,-33.20454 0.4125,-0.41152 0.78942,12.03929 0.83761,27.66845 0.0912,29.5919 0.64321,38.00268 2.53507,38.62761 1.89842,0.62709 2.36094,-3.39923 3.0405,-26.46819 0.36061,-12.24149 0.92141,-21.99184 1.24623,-21.66744 0.32483,0.3244 0.81559,11.20358 1.09059,24.17596 0.37346,17.6172 0.81634,23.69108 1.75,24.00077 0.6875,0.22805 1.25,-0.29787 1.25,-1.16871 0,-0.87083 0.45,-1.58333 1,-1.58333 0.60098,0 1.04331,-4.48902 1.10853,-11.25 0.0597,-6.1875 0.44354,-13.95 0.85298,-17.25 0.64177,-5.17245 0.76473,-4.33123 0.89147,6.09912 0.18669,15.3634 1.19436,27.40088 2.29376,27.40088 0.46929,0 0.85326,-0.66088 0.85326,-1.46862 0,-0.89459 0.58629,-1.24363 1.5,-0.89301 0.825,0.31659 1.49968,1.08996 1.49929,1.71862 -9.3e-4,1.50805 -5.0248,1.77261 -5.53754,0.2916 z"
       id="path3066"
       style="fill:#920000;fill-opacity:1" />
    <path
       d="m 512.39988,772.5769 0,-5.1136 m -33.96638,5.11361 0,-5.1136 m -33.96638,4.98733 0,-5.1136 m -34.09265,4.86106 0,-9.40675 m -33.96638,9.28048 0,-5.1136 m -204.05081,5.1136 0,-5.1136 m 34.09265,5.36613 0,-5.1136 m 33.84011,4.86108 0,-9.28048 m 34.09265,9.78554 0,-5.1136 m 33.84011,4.63085 0,-5.1136 m 34.09863,5.1227 0,-5.1136 m -175.64626,5.11612 175.64626,0 175.88683,0"
       id="path3076-01"
       style="fill:none;stroke:#000000;stroke-width:1px;stroke-linecap:butt;stroke-linejoin:miter;stroke-opacity:1" />
    <text
       x="225.26402"
       y="785.17688"
       id="text3162"
       xml:space="preserve"
       style="font-size:14px;font-style:normal;font-variant:normal;font-weight:normal;font-stretch:normal;line-height:125%;letter-spacing:0px;word-spacing:0px;fill:#000000;fill-opacity:1;stroke:none;font-family:Liberation Sans;-inkscape-font-specification:Liberation Sans"><tspan
         x="225.26402"
         y="785.17688"
         id="tspan3164">2200</tspan></text>
    <text
       x="395.97604"
       y="785.17688"
       id="text3162-8"
       xml:space="preserve"
       style="font-size:14px;font-style:normal;font-variant:normal;font-weight:normal;font-stretch:normal;line-height:125%;letter-spacing:0px;word-spacing:0px;fill:#000000;fill-opacity:1;stroke:none;font-family:Liberation Sans;-inkscape-font-specification:Liberation Sans"><tspan
         x="395.97604"
         y="785.17688"
         id="tspan3164-3">2100</tspan></text>
    <g
       id="g2993">
      <text
         x="276.7818"
         y="799.82404"
         id="text3187"
         xml:space="preserve"
         style="font-size:14px;font-style:normal;font-variant:normal;font-weight:normal;font-stretch:normal;line-height:125%;letter-spacing:0px;word-spacing:0px;fill:#000000;fill-opacity:1;stroke:none;font-family:Liberation Sans;-inkscape-font-specification:Liberation Sans"><tspan
           x="276.7818"
           y="799.82404"
           id="tspan3189">Wavenumber/cm<tspan
   id="tspan3191"
   style="font-size:65.00091553%;baseline-shift:super" /></tspan></text>
      <text
         x="382.31638"
         y="794.24164"
         id="text2991"
         xml:space="preserve"
         style="font-size:8px;font-style:normal;font-variant:normal;font-weight:normal;font-stretch:normal;line-height:125%;letter-spacing:0px;word-spacing:0px;fill:#000000;fill-opacity:1;stroke:none;font-family:Liberation Sans;-inkscape-font-specification:Sans"><tspan
           x="382.31638"
           y="794.24164"
           id="tspan2993"
           style="font-size:9px">-1</tspan></text>
    </g>
  </g>
</svg>
